name rise49.25peak52.1432fall72.8391.mot
datacolumns 19
datarows 35
range 2.76832100000000 2.82498700000000
endheader
time	ground_force1_vx	ground_force1_vy	ground_force1_vz	ground_force1_px	ground_force1_py	ground_force1_pz	ground_force2_vx	ground_force2_vy	ground_force2_vz	ground_force2_px	ground_force2_py	ground_force2_pz	ground_torque1_x	ground_torque1_y	ground_torque1_z	ground_torque2_x	ground_torque2_y	ground_torque2_z	
2.76832100000000	-6.17982300000000	45.68632100000000	-10.45978400000000	0.33618700000000	0.00000000000000	0.10587900000000	-57.13598200000000	786.45542899999998	-40.70635100000000	0.14389800000000	0.00000000000000	-0.06789200000000	0.00000000000000	-7.32956000000000	0.00000000000000	0.00000000000000	-18.24373600000000	0.00000000000000	
2.76998700000000	-6.58655200000000	52.10395100000000	-11.48238000000000	0.34170300000000	0.00000000000000	0.10651900000000	-58.11084600000000	784.25716100000000	-40.24397500000000	0.14315500000000	0.00000000000000	-0.06770500000000	0.00000000000000	-8.14014600000000	0.00000000000000	0.00000000000000	-18.20416400000000	0.00000000000000	
2.77165500000000	-6.86213600000000	58.42855900000000	-12.36849200000000	0.34684100000000	0.00000000000000	0.10712300000000	-59.10239100000000	781.95721100000003	-39.77135400000000	0.14241800000000	0.00000000000000	-0.06751300000000	0.00000000000000	-8.86988300000000	0.00000000000000	0.00000000000000	-18.16661600000000	0.00000000000000	
2.77332500000000	-6.99702100000000	64.59580000000000	-13.10233600000000	0.35163700000000	0.00000000000000	0.10769700000000	-60.10943800000000	779.55224799999996	-39.28846100000000	0.14168800000000	0.00000000000000	-0.06731900000000	0.00000000000000	-9.50548400000000	0.00000000000000	0.00000000000000	-18.13091200000000	0.00000000000000	
2.77499500000000	-6.98798100000000	70.56720199999999	-13.67674100000000	0.35612500000000	0.00000000000000	0.10824300000000	-61.13070000000000	777.03887199999997	-38.79527800000000	0.14096400000000	0.00000000000000	-0.06712100000000	0.00000000000000	-10.03969100000000	0.00000000000000	0.00000000000000	-18.09685500000000	0.00000000000000	
2.77665800000000	-6.83752800000000	76.32945900000000	-14.09249700000000	0.36033000000000	0.00000000000000	0.10876600000000	-62.16478100000000	774.41362000000004	-38.29179500000000	0.14024600000000	0.00000000000000	-0.06691900000000	0.00000000000000	-10.47098800000000	0.00000000000000	0.00000000000000	-18.06423100000000	0.00000000000000	
2.77832300000000	-6.55294100000000	81.89176900000000	-14.35716600000000	0.36427700000000	0.00000000000000	0.10926700000000	-63.21017800000000	771.67298200000005	-37.77801100000000	0.13953400000000	0.00000000000000	-0.06671500000000	0.00000000000000	-10.80289700000000	0.00000000000000	0.00000000000000	-18.03281200000000	0.00000000000000	
2.77999000000000	-6.14508600000000	87.28178500000000	-14.48353600000000	0.36798500000000	0.00000000000000	0.10975000000000	-64.26527900000001	768.81340599999999	-37.25393900000000	0.13882800000000	0.00000000000000	-0.06650700000000	0.00000000000000	-11.04296200000000	0.00000000000000	0.00000000000000	-18.00235600000000	0.00000000000000	
2.78166000000000	-5.62713600000000	92.54075100000000	-14.48791500000000	0.37147300000000	0.00000000000000	0.11021500000000	-65.32836800000000	765.83131300000002	-36.71960400000000	0.13812700000000	0.00000000000000	-0.06629600000000	0.00000000000000	-11.20158100000000	0.00000000000000	0.00000000000000	-17.97260400000000	0.00000000000000	
2.78332500000000	-5.01334100000000	97.71836399999999	-14.38843300000000	0.37475500000000	0.00000000000000	0.11066500000000	-66.39762300000000	762.72310400000003	-36.17504700000000	0.13743200000000	0.00000000000000	-0.06608200000000	0.00000000000000	-11.29080200000000	0.00000000000000	0.00000000000000	-17.94328800000000	0.00000000000000	
2.78498600000000	-4.31790800000000	102.86783300000000	-14.20348700000000	0.37784600000000	0.00000000000000	0.11110100000000	-67.47112100000000	759.48517800000002	-35.62032400000000	0.13674200000000	0.00000000000000	-0.06586400000000	0.00000000000000	-11.32318100000000	0.00000000000000	0.00000000000000	-17.91412500000000	0.00000000000000	
2.78665800000000	-3.55408800000000	108.04149099999999	-13.95043100000000	0.38075600000000	0.00000000000000	0.11152400000000	-68.54684100000000	756.11393899999996	-35.05551000000000	0.13605700000000	0.00000000000000	-0.06564400000000	0.00000000000000	-11.31080000000000	0.00000000000000	0.00000000000000	-17.88482300000000	0.00000000000000	
2.78832400000000	-2.73349500000000	113.28721400000001	-13.64456800000000	0.38349700000000	0.00000000000000	0.11193400000000	-69.62266500000000	752.60581300000001	-34.48069900000000	0.13537700000000	0.00000000000000	-0.06542100000000	0.00000000000000	-11.26448300000000	0.00000000000000	0.00000000000000	-17.85507900000000	0.00000000000000	
2.78999000000000	-1.86566500000000	118.64577600000000	-13.29847300000000	0.38607800000000	0.00000000000000	0.11233400000000	-70.69638399999999	748.95725700000003	-33.89600700000000	0.13470100000000	0.00000000000000	-0.06519600000000	0.00000000000000	-11.19324600000000	0.00000000000000	0.00000000000000	-17.82458100000000	0.00000000000000	
2.79165200000000	-0.95785300000000	124.14918100000000	-12.92164100000000	0.38850800000000	0.00000000000000	0.11272300000000	-71.76570200000000	745.16478099999995	-33.30156900000000	0.13402900000000	0.00000000000000	-0.06496800000000	0.00000000000000	-11.10398200000000	0.00000000000000	0.00000000000000	-17.79300900000000	0.00000000000000	
2.79332500000000	-0.01503900000000	129.81992399999999	-12.52042200000000	0.39079400000000	0.00000000000000	0.11310200000000	-72.82823900000000	741.22495200000003	-32.69754600000000	0.13336100000000	0.00000000000000	-0.06473700000000	0.00000000000000	-11.00136000000000	0.00000000000000	0.00000000000000	-17.76003500000000	0.00000000000000	
2.79498800000000	0.95989400000000	135.67106500000000	-12.09820800000000	0.39294300000000	0.00000000000000	0.11347200000000	-73.88153800000001	737.13441599999999	-32.08412300000000	0.13269600000000	0.00000000000000	-0.06450300000000	0.00000000000000	-10.88791500000000	0.00000000000000	0.00000000000000	-17.72532900000000	0.00000000000000	
2.79665600000000	1.96586000000000	141.70696200000000	-11.65579800000000	0.39496200000000	0.00000000000000	0.11383300000000	-74.92307000000000	732.88991199999998	-31.46150900000000	0.13203500000000	0.00000000000000	-0.06426800000000	0.00000000000000	-10.76428000000000	0.00000000000000	0.00000000000000	-17.68855200000000	0.00000000000000	
2.79832100000000	3.00318500000000	147.92448899999999	-11.19189500000000	0.39685500000000	0.00000000000000	0.11418600000000	-75.95024200000000	728.48828600000002	-30.82994100000000	0.13137600000000	0.00000000000000	-0.06402900000000	0.00000000000000	-10.62952300000000	0.00000000000000	0.00000000000000	-17.64936600000000	0.00000000000000	
2.79999100000000	4.07318700000000	154.31455700000001	-10.70366500000000	0.39862800000000	0.00000000000000	0.11453000000000	-76.96040000000001	723.92650800000001	-30.18968300000000	0.13071900000000	0.00000000000000	-0.06378900000000	0.00000000000000	-10.48154100000000	0.00000000000000	0.00000000000000	-17.60742800000000	0.00000000000000	
2.80165400000000	5.17776000000000	160.86376999999999	-10.18730400000000	0.40028600000000	0.00000000000000	0.11486600000000	-77.95084000000000	719.20169099999998	-29.54102400000000	0.13006400000000	0.00000000000000	-0.06354700000000	0.00000000000000	-10.31747000000000	0.00000000000000	0.00000000000000	-17.56239600000000	0.00000000000000	
2.80332000000000	6.31898500000000	167.55606299999999	-9.63857900000000	0.40183300000000	0.00000000000000	0.11519400000000	-78.91881300000000	714.31110500000000	-28.88428600000000	0.12941100000000	0.00000000000000	-0.06330200000000	0.00000000000000	-10.13408200000000	0.00000000000000	0.00000000000000	-17.51392900000000	0.00000000000000	
2.80500200000000	7.49879800000000	174.37421499999999	-9.05329500000000	0.40327200000000	0.00000000000000	0.11551500000000	-79.86153400000001	709.25219600000003	-28.21981600000000	0.12875900000000	0.00000000000000	-0.06305600000000	0.00000000000000	-9.92813300000000	0.00000000000000	0.00000000000000	-17.46168700000000	0.00000000000000	
2.80665500000000	8.71873300000000	181.30113800000001	-8.42767800000000	0.40460700000000	0.00000000000000	0.11582800000000	-80.77618900000000	704.02260500000000	-27.54799000000000	0.12810800000000	0.00000000000000	-0.06280800000000	0.00000000000000	-9.69665700000000	0.00000000000000	0.00000000000000	-17.40533300000000	0.00000000000000	
2.80832100000000	9.97972700000000	188.32090099999999	-7.75866200000000	0.40584200000000	0.00000000000000	0.11613400000000	-81.65994499999999	698.62018399999999	-26.86921600000000	0.12745700000000	0.00000000000000	-0.06255800000000	0.00000000000000	-9.43717900000000	0.00000000000000	0.00000000000000	-17.34453600000000	0.00000000000000	
2.80998500000000	11.28201300000000	195.41945799999999	-7.04406400000000	0.40698000000000	0.00000000000000	0.11643200000000	-82.50995600000000	693.04301499999997	-26.18392700000000	0.12680500000000	0.00000000000000	-0.06230700000000	0.00000000000000	-9.14786200000000	0.00000000000000	0.00000000000000	-17.27897000000000	0.00000000000000	
2.81165400000000	12.62507700000000	202.58509200000000	-6.28267500000000	0.40802300000000	0.00000000000000	0.11672400000000	-83.32337500000000	687.28942900000004	-25.49258500000000	0.12615300000000	0.00000000000000	-0.06205400000000	0.00000000000000	-8.82757900000000	0.00000000000000	0.00000000000000	-17.20831600000000	0.00000000000000	
2.81331800000000	14.00767000000000	209.80859300000000	-5.47425900000000	0.40897300000000	0.00000000000000	0.11700700000000	-84.09736300000000	681.35801900000001	-24.79568300000000	0.12550000000000	0.00000000000000	-0.06179900000000	0.00000000000000	-8.47592200000000	0.00000000000000	0.00000000000000	-17.13226300000000	0.00000000000000	
2.81500500000000	15.42787400000000	217.08321500000000	-4.61949500000000	0.40983400000000	0.00000000000000	0.11728400000000	-84.82909400000000	675.24765800000000	-24.09373600000000	0.12484500000000	0.00000000000000	-0.06154400000000	0.00000000000000	-8.09316200000000	0.00000000000000	0.00000000000000	-17.05051000000000	0.00000000000000	
2.81665600000000	16.88319300000000	224.40445099999999	-3.71985900000000	0.41060800000000	0.00000000000000	0.11755400000000	-85.51577100000000	668.95751399999995	-23.38729100000000	0.12418800000000	0.00000000000000	-0.06128700000000	0.00000000000000	-7.68016900000000	0.00000000000000	0.00000000000000	-16.96276600000000	0.00000000000000	
2.81831800000000	18.37067300000000	231.76970000000000	-2.77748100000000	0.41129600000000	0.00000000000000	0.11781600000000	-86.15463099999999	662.48706200000004	-22.67691700000000	0.12352900000000	0.00000000000000	-0.06102900000000	0.00000000000000	-7.23830700000000	0.00000000000000	0.00000000000000	-16.86875500000000	0.00000000000000	
2.81999200000000	19.88702100000000	239.17784800000001	-1.79498900000000	0.41190200000000	0.00000000000000	0.11807100000000	-86.74295600000001	655.83609500000000	-21.96321000000000	0.12286600000000	0.00000000000000	-0.06077000000000	0.00000000000000	-6.76931600000000	0.00000000000000	0.00000000000000	-16.76821100000000	0.00000000000000	
2.82165200000000	21.42873000000000	246.62882999999999	-0.77534600000000	0.41242600000000	0.00000000000000	0.11831800000000	-87.27808600000000	649.00472800000000	-21.24679000000000	0.12219900000000	0.00000000000000	-0.06051000000000	0.00000000000000	-6.27519400000000	0.00000000000000	0.00000000000000	-16.66088400000000	0.00000000000000	
2.82332500000000	22.99218100000000	254.12320700000001	0.27829600000000	0.41287100000000	0.00000000000000	0.11855900000000	-87.75742800000000	641.99341200000003	-20.52829900000000	0.12152800000000	0.00000000000000	-0.06024900000000	0.00000000000000	-5.75808800000000	0.00000000000000	0.00000000000000	-16.54654000000000	0.00000000000000	
2.82498700000000	24.57374800000000	261.66178500000001	1.36272300000000	0.41323800000000	0.00000000000000	0.11879200000000	-88.17846400000001	634.80292899999995	-19.80840200000000	0.12085200000000	0.00000000000000	-0.05998800000000	0.00000000000000	-5.22019200000000	0.00000000000000	0.00000000000000	-16.42496200000000	0.00000000000000	
